<svg width="16" height="16" viewBox="0 0 16 16" fill="none" xmlns="http://www.w3.org/2000/svg">
<g clip-path="url(#clip0_6001_1045)">
<path d="M15.7075 14.2969L12.6107 11.1989C14.9279 8.10235 14.296 3.71368 11.1995 1.39653C8.10302 -0.920614 3.71435 -0.288803 1.3972 2.80771C-0.919942 5.90423 -0.288132 10.2929 2.80838 12.61C5.29576 14.4714 8.71212 14.4714 11.1995 12.61L14.2976 15.7081C14.6869 16.0974 15.3182 16.0974 15.7074 15.7081C16.0968 15.3188 16.0968 14.6876 15.7074 14.2983L15.7075 14.2969ZM7.02978 12.0121C4.27774 12.0121 2.0468 9.78114 2.0468 7.02911C2.0468 4.27707 4.27774 2.04613 7.02978 2.04613C9.78181 2.04613 12.0128 4.27707 12.0128 7.02911C12.0098 9.7799 9.7806 12.0092 7.02978 12.0121Z" fill="#BCBCBC"/>
</g>
<defs>
<clipPath id="clip0_6001_1045">
<rect width="16" height="16" fill="white"/>
</clipPath>
</defs>
</svg>
